<?xml version="1.0" encoding="UTF-8" standalone="no"?>
<svg
   xmlns:dc="http://purl.org/dc/elements/1.1/"
   xmlns:cc="http://creativecommons.org/ns#"
   xmlns:rdf="http://www.w3.org/1999/02/22-rdf-syntax-ns#"
   xmlns:svg="http://www.w3.org/2000/svg"
   xmlns="http://www.w3.org/2000/svg"
   xmlns:sodipodi="http://sodipodi.sourceforge.net/DTD/sodipodi-0.dtd"
   xmlns:inkscape="http://www.inkscape.org/namespaces/inkscape"
   id="Layer_1"
   viewBox="0 0 1463.87 1499"
   version="1.1"
   sodipodi:docname="Singularity.svg"
   width="1463.87"
   height="1499"
   inkscape:version="0.92.5 (2060ec1f9f, 2020-04-08)">
  <metadata
     id="metadata15">
    <rdf:RDF>
      <cc:Work
         rdf:about="">
        <dc:format>image/svg+xml</dc:format>
        <dc:type
           rdf:resource="http://purl.org/dc/dcmitype/StillImage" />
        <dc:title></dc:title>
      </cc:Work>
    </rdf:RDF>
  </metadata>
  <sodipodi:namedview
     pagecolor="#ffffff"
     bordercolor="#666666"
     borderopacity="1"
     objecttolerance="10"
     gridtolerance="10"
     guidetolerance="10"
     inkscape:pageopacity="0"
     inkscape:pageshadow="2"
     inkscape:window-width="1920"
     inkscape:window-height="1080"
     id="namedview13"
     showgrid="false"
     inkscape:pagecheckerboard="true"
     inkscape:zoom="0.15733333"
     inkscape:cx="784.28246"
     inkscape:cy="750"
     inkscape:window-x="0"
     inkscape:window-y="0"
     inkscape:window-maximized="1"
     inkscape:current-layer="Layer_1" />
  <defs
     id="defs4">
    <style
       id="style2">.cls-1{fill:#f49300;}.cls-2{fill:#fff;}.cls-3{fill:#bbbdbf;}.cls-4{fill:#162c50;}.cls-5{fill:#23a0da;}.cls-6{fill:#88c233;}</style>
  </defs>
  <path
     id="Path_130"
     class="cls-5"
     d="M 731.57,107.1 C 386.86,108.14 107.59,393.63 106.27,746.19 H 235.32 C 236.64,467.48 458.18,241.87 731.54,241.18 l 0.02,-134.08 z"
     inkscape:connector-curvature="0"
     style="fill:#23a0da" />
  <path
     id="Path_131"
     class="cls-6"
     d="m 760.38,107.68 v 134.27 c 261.13,14.57 468.64,234.53 469.91,504.24 h 130.33 C 1359.33,402.22 1093.46,122.08 760.38,107.68 Z"
     inkscape:connector-curvature="0"
     style="fill:#88c233" />
  <path
     id="Path_132"
     class="cls-3"
     d="M 731.56,1256.21 C 466.43,1255.55 250.05,1043.32 236.04,776.26 H 106.82 c 14.09,340.93 288.24,613.01 624.74,614.03 z"
     inkscape:connector-curvature="0"
     style="fill:#bbbdbf" />
  <path
     id="Path_133"
     class="cls-1"
     d="m 1229.58,776.26 c -13.54,258.16 -216.2,465.08 -469.19,479.18 v 134.26 c 324.95,-14.05 585.94,-281.02 599.68,-613.44 h -130.48 z"
     inkscape:connector-curvature="0"
     style="fill:#f49300" />
  <path
     id="Path_134"
     class="cls-4"
     d="m 865.66,673.5 c 0,0 -30.08,-11.28 -75.19,-30.07 -60.15,-25.06 -48.88,-51.38 -48.88,-51.38 0,0 12.54,-43.86 86.46,-28.82 77.16,15.69 134.1,96.49 134.1,96.49 l 73.93,-211.78 C 922.04,401.57 750.94,399.37 677.68,406.59 512.27,422.88 443.35,520.38 443.35,619 c 0,75.51 27.57,130.95 92.07,166.19 76.76,47.92 146.62,51.89 166.08,87.57 25.77,47.25 -35.09,56.39 -35.09,56.39 C 566.17,936.67 488.47,825.14 488.47,825.14 l -72.69,221.8 c 281.96,95.24 476.19,30.08 476.19,30.08 88.97,-30.08 157.89,-91.48 157.89,-195.49 -0.03,-102.42 -58.92,-162.9 -184.22,-208.02 z"
     inkscape:connector-curvature="0"
     style="fill:#162c50" />
</svg>
